<?xml version="1.0" standalone="no"?>
<svg viewBox="0 0 200 200" xmlns="http://www.w3.org/2000/svg">
  <path fill="#8EA98B" d="M43.8,-67.6C58.2,-67.7,72,-58.6,74.3,-45.8C76.6,-33.1,67.3,-16.5,65.5,-1.1C63.6,14.4,69.1,28.7,62.7,34.5C56.4,40.2,38.2,37.4,25.7,44.1C13.3,50.7,6.6,66.9,-0.2,67.3C-7.1,67.6,-14.1,52.2,-19.5,41.4C-24.9,30.7,-28.6,24.7,-32.3,18.6C-36,12.5,-39.7,6.2,-47.2,-4.4C-54.8,-14.9,-66.2,-29.9,-66.5,-42.9C-66.8,-56,-56,-67.1,-43.1,-67.8C-30.1,-68.4,-15.1,-58.6,-0.1,-58.4C14.8,-58.1,29.5,-67.4,43.8,-67.6Z" transform="translate(100 100)" />
</svg>
